<?xml version="1.0" encoding="UTF-8"?>
<svg width="298px" height="396px" viewBox="0 0 298 396" version="1.1" xmlns="http://www.w3.org/2000/svg" xmlns:xlink="http://www.w3.org/1999/xlink">
    <!-- Generator: Sketch 57.1 (83088) - https://sketch.com -->
    <title>RocketShip&amp;Stars</title>
    <desc>Created with Sketch.</desc>
    <defs>
        <linearGradient x1="50%" y1="0%" x2="50%" y2="100%" id="linearGradient-1">
            <stop stop-color="#0D0093" offset="0%"></stop>
            <stop stop-color="#001358" offset="100%"></stop>
        </linearGradient>
        <linearGradient x1="50%" y1="0%" x2="50%" y2="100%" id="linearGradient-2">
            <stop stop-color="#460091" offset="0%"></stop>
            <stop stop-color="#210058" offset="100%"></stop>
        </linearGradient>
        <linearGradient x1="50%" y1="45.7509957%" x2="50%" y2="100%" id="linearGradient-3">
            <stop stop-color="#6C0CF3" offset="0%"></stop>
            <stop stop-color="#054DE3" offset="100%"></stop>
        </linearGradient>
        <linearGradient x1="50%" y1="2.67475329%" x2="50%" y2="83.8199013%" id="linearGradient-4">
            <stop stop-color="#6789FF" offset="0%"></stop>
            <stop stop-color="#B277EA" offset="100%"></stop>
        </linearGradient>
        <linearGradient x1="50%" y1="-103.808594%" x2="50%" y2="100%" id="linearGradient-5">
            <stop stop-color="#054DE3" offset="0%"></stop>
            <stop stop-color="#6C0CF3" offset="100%"></stop>
        </linearGradient>
        <radialGradient cx="50%" cy="28.6865234%" fx="50%" fy="28.6865234%" r="85.0423177%" id="radialGradient-6">
            <stop stop-color="#0CDDF3" offset="0%"></stop>
            <stop stop-color="#05B8E3" offset="100%"></stop>
        </radialGradient>
        <linearGradient x1="50%" y1="0%" x2="50%" y2="100%" id="linearGradient-7">
            <stop stop-color="#C8C8C8" offset="0%"></stop>
            <stop stop-color="#979797" offset="100%"></stop>
        </linearGradient>
    </defs>
    <g id="Page-1" stroke="none" stroke-width="1" fill="none" fill-rule="evenodd">
        <g id="Landing_Page_Success-Copy-3" transform="translate(-540.000000, -1676.000000)">
            <g id="RocketShip&amp;Stars" transform="translate(517.000000, 1676.000000)">
                <g id="Polygon">
                    <polygon fill="url(#linearGradient-1)" points="171.75 0 320.489863 85.875 320.489863 257.625 171.75 343.5 23.0101369 257.625 23.0101369 85.875"></polygon>
                    <polygon stroke="#0D0093" stroke-width="3.75" fill="url(#linearGradient-2)" stroke-linejoin="round" points="171.75 19.875 303.277608 95.8125 303.277608 247.6875 171.75 323.625 40.2223918 247.6875 40.2223918 95.8125"></polygon>
                </g>
                <g id="Stars" transform="translate(42.000000, 30.000000)" fill="#FFFFFF" opacity="0.577543713">
                    <path d="M42.5,150.557791 C40.3333333,150.557791 38.1666667,151.371861 36,153 C37.6281391,150.833333 38.4422087,148.666667 38.4422087,146.5 C38.4422087,144.333333 37.6281391,142.166667 36,140 C38.1666667,141.628139 40.3333333,142.442209 42.5,142.442209 C44.6666667,142.442209 46.8333333,141.628139 49,140 C47.3718609,142.166667 46.5577913,144.333333 46.5577913,146.5 C46.5577913,148.666667 47.3718609,150.833333 49,153 C46.8333333,151.371861 44.6666667,150.557791 42.5,150.557791 Z" id="Star-Copy-9" transform="translate(42.500000, 146.500000) rotate(-45.000000) translate(-42.500000, -146.500000) "></path>
                    <path d="M29.5,76.5577913 C27.3333333,76.5577913 25.1666667,77.3718609 23,79 C24.6281391,76.8333333 25.4422087,74.6666667 25.4422087,72.5 C25.4422087,70.3333333 24.6281391,68.1666667 23,66 C25.1666667,67.6281391 27.3333333,68.4422087 29.5,68.4422087 C31.6666667,68.4422087 33.8333333,67.6281391 36,66 C34.3718609,68.1666667 33.5577913,70.3333333 33.5577913,72.5 C33.5577913,74.6666667 34.3718609,76.8333333 36,79 C33.8333333,77.3718609 31.6666667,76.5577913 29.5,76.5577913 Z" id="Star-Copy" transform="translate(29.500000, 72.500000) rotate(-45.000000) translate(-29.500000, -72.500000) "></path>
                    <path d="M182.535534,93.1791117 C180.368867,93.1791117 178.202201,93.9931812 176.035534,95.6213203 C177.663673,93.4546537 178.477743,91.287987 178.477743,89.1213203 C178.477743,86.9546537 177.663673,84.787987 176.035534,82.6213203 C178.202201,84.2494595 180.368867,85.063529 182.535534,85.063529 C184.702201,85.063529 186.868867,84.2494595 189.035534,82.6213203 C187.407395,84.787987 186.593325,86.9546537 186.593325,89.1213203 C186.593325,91.287987 187.407395,93.4546537 189.035534,95.6213203 C186.868867,93.9931812 184.702201,93.1791117 182.535534,93.1791117 Z" id="Star-Copy-10" transform="translate(182.535534, 89.121320) rotate(-45.000000) translate(-182.535534, -89.121320) "></path>
                    <path d="M18.5,210.522257 C16.3333333,210.522257 14.1666667,211.336327 12,212.964466 C13.6281391,210.797799 14.4422087,208.631133 14.4422087,206.464466 C14.4422087,204.297799 13.6281391,202.131133 12,199.964466 C14.1666667,201.592605 16.3333333,202.406675 18.5,202.406675 C20.6666667,202.406675 22.8333333,201.592605 25,199.964466 C23.3718609,202.131133 22.5577913,204.297799 22.5577913,206.464466 C22.5577913,208.631133 23.3718609,210.797799 25,212.964466 C22.8333333,211.336327 20.6666667,210.522257 18.5,210.522257 Z" id="Star-Copy-47" transform="translate(18.500000, 206.464466) rotate(-45.000000) translate(-18.500000, -206.464466) "></path>
                    <path d="M242.5,84.5577913 C240.333333,84.5577913 238.166667,85.3718609 236,87 C237.628139,84.8333333 238.442209,82.6666667 238.442209,80.5 C238.442209,78.3333333 237.628139,76.1666667 236,74 C238.166667,75.6281391 240.333333,76.4422087 242.5,76.4422087 C244.666667,76.4422087 246.833333,75.6281391 249,74 C247.371861,76.1666667 246.557791,78.3333333 246.557791,80.5 C246.557791,82.6666667 247.371861,84.8333333 249,87 C246.833333,85.3718609 244.666667,84.5577913 242.5,84.5577913 Z" id="Star-Copy-28" transform="translate(242.500000, 80.500000) rotate(-45.000000) translate(-242.500000, -80.500000) "></path>
                    <path d="M66.5,193.557791 C64.3333333,193.557791 62.1666667,194.371861 60,196 C61.6281391,193.833333 62.4422087,191.666667 62.4422087,189.5 C62.4422087,187.333333 61.6281391,185.166667 60,183 C62.1666667,184.628139 64.3333333,185.442209 66.5,185.442209 C68.6666667,185.442209 70.8333333,184.628139 73,183 C71.3718609,185.166667 70.5577913,187.333333 70.5577913,189.5 C70.5577913,191.666667 71.3718609,193.833333 73,196 C70.8333333,194.371861 68.6666667,193.557791 66.5,193.557791 Z" id="Star-Copy-45" transform="translate(66.500000, 189.500000) rotate(-45.000000) translate(-66.500000, -189.500000) "></path>
                    <path d="M173.5,201.522257 C171.333333,201.522257 169.166667,202.336327 167,203.964466 C168.628139,201.797799 169.442209,199.631133 169.442209,197.464466 C169.442209,195.297799 168.628139,193.131133 167,190.964466 C169.166667,192.592605 171.333333,193.406675 173.5,193.406675 C175.666667,193.406675 177.833333,192.592605 180,190.964466 C178.371861,193.131133 177.557791,195.297799 177.557791,197.464466 C177.557791,199.631133 178.371861,201.797799 180,203.964466 C177.833333,202.336327 175.666667,201.522257 173.5,201.522257 Z" id="Star-Copy-4" transform="translate(173.500000, 197.464466) rotate(-45.000000) translate(-173.500000, -197.464466) "></path>
                    <path d="M212.5,219.557791 C210.333333,219.557791 208.166667,220.371861 206,222 C207.628139,219.833333 208.442209,217.666667 208.442209,215.5 C208.442209,213.333333 207.628139,211.166667 206,209 C208.166667,210.628139 210.333333,211.442209 212.5,211.442209 C214.666667,211.442209 216.833333,210.628139 219,209 C217.371861,211.166667 216.557791,213.333333 216.557791,215.5 C216.557791,217.666667 217.371861,219.833333 219,222 C216.833333,220.371861 214.666667,219.557791 212.5,219.557791 Z" id="Star-Copy-11" transform="translate(212.500000, 215.500000) rotate(-45.000000) translate(-212.500000, -215.500000) "></path>
                    <path d="M145.5,264.557791 C143.333333,264.557791 141.166667,265.371861 139,267 C140.628139,264.833333 141.442209,262.666667 141.442209,260.5 C141.442209,258.333333 140.628139,256.166667 139,254 C141.166667,255.628139 143.333333,256.442209 145.5,256.442209 C147.666667,256.442209 149.833333,255.628139 152,254 C150.371861,256.166667 149.557791,258.333333 149.557791,260.5 C149.557791,262.666667 150.371861,264.833333 152,267 C149.833333,265.371861 147.666667,264.557791 145.5,264.557791 Z" id="Star-Copy-29" transform="translate(145.500000, 260.500000) rotate(-45.000000) translate(-145.500000, -260.500000) "></path>
                    <path d="M83.8431458,180.025155 C83.0098124,180.025155 82.1764791,180.338259 81.3431458,180.964466 C81.9693531,180.131133 82.2824568,179.297799 82.2824568,178.464466 C82.2824568,177.631133 81.9693531,176.797799 81.3431458,175.964466 C82.1764791,176.590673 83.0098124,176.903777 83.8431458,176.903777 C84.6764791,176.903777 85.5098124,176.590673 86.3431458,175.964466 C85.7169384,176.797799 85.4038347,177.631133 85.4038347,178.464466 C85.4038347,179.297799 85.7169384,180.131133 86.3431458,180.964466 C85.5098124,180.338259 84.6764791,180.025155 83.8431458,180.025155 Z" id="Star-Copy-6" transform="translate(83.843146, 178.464466) rotate(-45.000000) translate(-83.843146, -178.464466) "></path>
                    <path d="M115.843146,6.06068897 C115.009812,6.06068897 114.176479,6.37379265 113.343146,7 C113.969353,6.16666667 114.282457,5.33333333 114.282457,4.5 C114.282457,3.66666667 113.969353,2.83333333 113.343146,2 C114.176479,2.62620735 115.009812,2.93931103 115.843146,2.93931103 C116.676479,2.93931103 117.509812,2.62620735 118.343146,2 C117.716938,2.83333333 117.403835,3.66666667 117.403835,4.5 C117.403835,5.33333333 117.716938,6.16666667 118.343146,7 C117.509812,6.37379265 116.676479,6.06068897 115.843146,6.06068897 Z" id="Star-Copy-30" transform="translate(115.843146, 4.500000) rotate(-45.000000) translate(-115.843146, -4.500000) "></path>
                    <path d="M204.5,208.060689 C203.666667,208.060689 202.833333,208.373793 202,209 C202.626207,208.166667 202.939311,207.333333 202.939311,206.5 C202.939311,205.666667 202.626207,204.833333 202,204 C202.833333,204.626207 203.666667,204.939311 204.5,204.939311 C205.333333,204.939311 206.166667,204.626207 207,204 C206.373793,204.833333 206.060689,205.666667 206.060689,206.5 C206.060689,207.333333 206.373793,208.166667 207,209 C206.166667,208.373793 205.333333,208.060689 204.5,208.060689 Z" id="Star-Copy-12" transform="translate(204.500000, 206.500000) rotate(-45.000000) translate(-204.500000, -206.500000) "></path>
                    <path d="M254.5,161.025155 C253.666667,161.025155 252.833333,161.338259 252,161.964466 C252.626207,161.131133 252.939311,160.297799 252.939311,159.464466 C252.939311,158.631133 252.626207,157.797799 252,156.964466 C252.833333,157.590673 253.666667,157.903777 254.5,157.903777 C255.333333,157.903777 256.166667,157.590673 257,156.964466 C256.373793,157.797799 256.060689,158.631133 256.060689,159.464466 C256.060689,160.297799 256.373793,161.131133 257,161.964466 C256.166667,161.338259 255.333333,161.025155 254.5,161.025155 Z" id="Star-Copy-51" transform="translate(254.500000, 159.464466) rotate(-45.000000) translate(-254.500000, -159.464466) "></path>
                    <path d="M36.5,140.060689 C35.6666667,140.060689 34.8333333,140.373793 34,141 C34.6262074,140.166667 34.939311,139.333333 34.939311,138.5 C34.939311,137.666667 34.6262074,136.833333 34,136 C34.8333333,136.626207 35.6666667,136.939311 36.5,136.939311 C37.3333333,136.939311 38.1666667,136.626207 39,136 C38.3737926,136.833333 38.060689,137.666667 38.060689,138.5 C38.060689,139.333333 38.3737926,140.166667 39,141 C38.1666667,140.373793 37.3333333,140.060689 36.5,140.060689 Z" id="Star-Copy-8" transform="translate(36.500000, 138.500000) rotate(-45.000000) translate(-36.500000, -138.500000) "></path>
                    <path d="M186.535534,103.682009 C185.702201,103.682009 184.868867,103.995113 184.035534,104.62132 C184.661741,103.787987 184.974845,102.954654 184.974845,102.12132 C184.974845,101.287987 184.661741,100.454654 184.035534,99.6213203 C184.868867,100.247528 185.702201,100.560631 186.535534,100.560631 C187.368867,100.560631 188.202201,100.247528 189.035534,99.6213203 C188.409327,100.454654 188.096223,101.287987 188.096223,102.12132 C188.096223,102.954654 188.409327,103.787987 189.035534,104.62132 C188.202201,103.995113 187.368867,103.682009 186.535534,103.682009 Z" id="Star-Copy-13" transform="translate(186.535534, 102.121320) rotate(-45.000000) translate(-186.535534, -102.121320) "></path>
                    <path d="M8.53553391,159.717543 C7.70220057,159.717543 6.86886724,160.030647 6.03553391,160.656854 C6.66174126,159.823521 6.97484494,158.990188 6.97484494,158.156854 C6.97484494,157.323521 6.66174126,156.490188 6.03553391,155.656854 C6.86886724,156.283062 7.70220057,156.596165 8.53553391,156.596165 C9.36886724,156.596165 10.2022006,156.283062 11.0355339,155.656854 C10.4093266,156.490188 10.0962229,157.323521 10.0962229,158.156854 C10.0962229,158.990188 10.4093266,159.823521 11.0355339,160.656854 C10.2022006,160.030647 9.36886724,159.717543 8.53553391,159.717543 Z" id="Star-Copy-34" transform="translate(8.535534, 158.156854) rotate(-45.000000) translate(-8.535534, -158.156854) "></path>
                    <path d="M90.5,191.060689 C89.6666667,191.060689 88.8333333,191.373793 88,192 C88.6262074,191.166667 88.939311,190.333333 88.939311,189.5 C88.939311,188.666667 88.6262074,187.833333 88,187 C88.8333333,187.626207 89.6666667,187.939311 90.5,187.939311 C91.3333333,187.939311 92.1666667,187.626207 93,187 C92.3737926,187.833333 92.060689,188.666667 92.060689,189.5 C92.060689,190.333333 92.3737926,191.166667 93,192 C92.1666667,191.373793 91.3333333,191.060689 90.5,191.060689 Z" id="Star-Copy-22" transform="translate(90.500000, 189.500000) rotate(-45.000000) translate(-90.500000, -189.500000) "></path>
                    <path d="M16.5355339,68.6820093 C15.7022006,68.6820093 14.8688672,68.995113 14.0355339,69.6213203 C14.6617413,68.787987 14.9748449,67.9546537 14.9748449,67.1213203 C14.9748449,66.287987 14.6617413,65.4546537 14.0355339,64.6213203 C14.8688672,65.2475277 15.7022006,65.5606314 16.5355339,65.5606314 C17.3688672,65.5606314 18.2022006,65.2475277 19.0355339,64.6213203 C18.4093266,65.4546537 18.0962229,66.287987 18.0962229,67.1213203 C18.0962229,67.9546537 18.4093266,68.787987 19.0355339,69.6213203 C18.2022006,68.995113 17.3688672,68.6820093 16.5355339,68.6820093 Z" id="Star-Copy-14" transform="translate(16.535534, 67.121320) rotate(-45.000000) translate(-16.535534, -67.121320) "></path>
                    <path d="M122,79.4615684 C120.666667,79.4615684 119.333333,79.9625343 118,80.9644661 C119.001932,79.6311328 119.502898,78.2977994 119.502898,76.9644661 C119.502898,75.6311328 119.001932,74.2977994 118,72.9644661 C119.333333,73.9663979 120.666667,74.4673637 122,74.4673637 C123.333333,74.4673637 124.666667,73.9663979 126,72.9644661 C124.998068,74.2977994 124.497102,75.6311328 124.497102,76.9644661 C124.497102,78.2977994 124.998068,79.6311328 126,80.9644661 C124.666667,79.9625343 123.333333,79.4615684 122,79.4615684 Z" id="Star-Copy-3" transform="translate(122.000000, 76.964466) rotate(-45.000000) translate(-122.000000, -76.964466) "></path>
                    <path d="M98,266.461568 C96.6666667,266.461568 95.3333333,266.962534 94,267.964466 C95.0019318,266.631133 95.5028976,265.297799 95.5028976,263.964466 C95.5028976,262.631133 95.0019318,261.297799 94,259.964466 C95.3333333,260.966398 96.6666667,261.467364 98,261.467364 C99.3333333,261.467364 100.666667,260.966398 102,259.964466 C100.998068,261.297799 100.497102,262.631133 100.497102,263.964466 C100.497102,265.297799 100.998068,266.631133 102,267.964466 C100.666667,266.962534 99.3333333,266.461568 98,266.461568 Z" id="Star-Copy-50" transform="translate(98.000000, 263.964466) rotate(-45.000000) translate(-98.000000, -263.964466) "></path>
                    <path d="M60,241.461568 C58.6666667,241.461568 57.3333333,241.962534 56,242.964466 C57.0019318,241.631133 57.5028976,240.297799 57.5028976,238.964466 C57.5028976,237.631133 57.0019318,236.297799 56,234.964466 C57.3333333,235.966398 58.6666667,236.467364 60,236.467364 C61.3333333,236.467364 62.6666667,235.966398 64,234.964466 C62.9980682,236.297799 62.4971024,237.631133 62.4971024,238.964466 C62.4971024,240.297799 62.9980682,241.631133 64,242.964466 C62.6666667,241.962534 61.3333333,241.461568 60,241.461568 Z" id="Star-Copy-49" transform="translate(60.000000, 238.964466) rotate(-45.000000) translate(-60.000000, -238.964466) "></path>
                    <path d="M149,165.497102 C147.666667,165.497102 146.333333,165.998068 145,167 C146.001932,165.666667 146.502898,164.333333 146.502898,163 C146.502898,161.666667 146.001932,160.333333 145,159 C146.333333,160.001932 147.666667,160.502898 149,160.502898 C150.333333,160.502898 151.666667,160.001932 153,159 C151.998068,160.333333 151.497102,161.666667 151.497102,163 C151.497102,164.333333 151.998068,165.666667 153,167 C151.666667,165.998068 150.333333,165.497102 149,165.497102 Z" id="Star-Copy-15" transform="translate(149.000000, 163.000000) rotate(-45.000000) translate(-149.000000, -163.000000) "></path>
                    <path d="M234,144.461568 C232.666667,144.461568 231.333333,144.962534 230,145.964466 C231.001932,144.631133 231.502898,143.297799 231.502898,141.964466 C231.502898,140.631133 231.001932,139.297799 230,137.964466 C231.333333,138.966398 232.666667,139.467364 234,139.467364 C235.333333,139.467364 236.666667,138.966398 238,137.964466 C236.998068,139.297799 236.497102,140.631133 236.497102,141.964466 C236.497102,143.297799 236.998068,144.631133 238,145.964466 C236.666667,144.962534 235.333333,144.461568 234,144.461568 Z" id="Star-Copy-52" transform="translate(234.000000, 141.964466) rotate(-45.000000) translate(-234.000000, -141.964466) "></path>
                    <path d="M181,252.497102 C179.666667,252.497102 178.333333,252.998068 177,254 C178.001932,252.666667 178.502898,251.333333 178.502898,250 C178.502898,248.666667 178.001932,247.333333 177,246 C178.333333,247.001932 179.666667,247.502898 181,247.502898 C182.333333,247.502898 183.666667,247.001932 185,246 C183.998068,247.333333 183.497102,248.666667 183.497102,250 C183.497102,251.333333 183.998068,252.666667 185,254 C183.666667,252.998068 182.333333,252.497102 181,252.497102 Z" id="Star-Copy-40" transform="translate(181.000000, 250.000000) rotate(-45.000000) translate(-181.000000, -250.000000) "></path>
                    <path d="M110,13.4615684 C108.666667,13.4615684 107.333333,13.9625343 106,14.9644661 C107.001932,13.6311328 107.502898,12.2977994 107.502898,10.9644661 C107.502898,9.63113276 107.001932,8.29779943 106,6.96446609 C107.333333,7.96639786 108.666667,8.46736374 110,8.46736374 C111.333333,8.46736374 112.666667,7.96639786 114,6.96446609 C112.998068,8.29779943 112.497102,9.63113276 112.497102,10.9644661 C112.497102,12.2977994 112.998068,13.6311328 114,14.9644661 C112.666667,13.9625343 111.333333,13.4615684 110,13.4615684 Z" id="Star-Copy-5" transform="translate(110.000000, 10.964466) rotate(-45.000000) translate(-110.000000, -10.964466) "></path>
                    <path d="M137,40.4615684 C135.666667,40.4615684 134.333333,40.9625343 133,41.9644661 C134.001932,40.6311328 134.502898,39.2977994 134.502898,37.9644661 C134.502898,36.6311328 134.001932,35.2977994 133,33.9644661 C134.333333,34.9663979 135.666667,35.4673637 137,35.4673637 C138.333333,35.4673637 139.666667,34.9663979 141,33.9644661 C139.998068,35.2977994 139.497102,36.6311328 139.497102,37.9644661 C139.497102,39.2977994 139.998068,40.6311328 141,41.9644661 C139.666667,40.9625343 138.333333,40.4615684 137,40.4615684 Z" id="Star-Copy-23" transform="translate(137.000000, 37.964466) rotate(-45.000000) translate(-137.000000, -37.964466) "></path>
                    <path d="M238,220.497102 C236.666667,220.497102 235.333333,220.998068 234,222 C235.001932,220.666667 235.502898,219.333333 235.502898,218 C235.502898,216.666667 235.001932,215.333333 234,214 C235.333333,215.001932 236.666667,215.502898 238,215.502898 C239.333333,215.502898 240.666667,215.001932 242,214 C240.998068,215.333333 240.497102,216.666667 240.497102,218 C240.497102,219.333333 240.998068,220.666667 242,222 C240.666667,220.998068 239.333333,220.497102 238,220.497102 Z" id="Star-Copy-2" transform="translate(238.000000, 218.000000) rotate(-45.000000) translate(-238.000000, -218.000000) "></path>
                    <path d="M6,196.461568 C4.66666667,196.461568 3.33333333,196.962534 2,197.964466 C3.00193177,196.631133 3.50289765,195.297799 3.50289765,193.964466 C3.50289765,192.631133 3.00193177,191.297799 2,189.964466 C3.33333333,190.966398 4.66666667,191.467364 6,191.467364 C7.33333333,191.467364 8.66666667,190.966398 10,189.964466 C8.99806823,191.297799 8.49710235,192.631133 8.49710235,193.964466 C8.49710235,195.297799 8.99806823,196.631133 10,197.964466 C8.66666667,196.962534 7.33333333,196.461568 6,196.461568 Z" id="Star-Copy-48" transform="translate(6.000000, 193.964466) rotate(-45.000000) translate(-6.000000, -193.964466) "></path>
                    <path d="M122.535534,150.082889 C121.202201,150.082889 119.868867,150.583855 118.535534,151.585786 C119.537466,150.252453 120.038432,148.91912 120.038432,147.585786 C120.038432,146.252453 119.537466,144.91912 118.535534,143.585786 C119.868867,144.587718 121.202201,145.088684 122.535534,145.088684 C123.868867,145.088684 125.202201,144.587718 126.535534,143.585786 C125.533602,144.91912 125.032636,146.252453 125.032636,147.585786 C125.032636,148.91912 125.533602,150.252453 126.535534,151.585786 C125.202201,150.583855 123.868867,150.082889 122.535534,150.082889 Z" id="Star-Copy-17" transform="translate(122.535534, 147.585786) rotate(-45.000000) translate(-122.535534, -147.585786) "></path>
                </g>
                <g id="RocketShip" transform="translate(120.000000, 63.000000)">
                    <g id="Boosters" transform="translate(39.000000, 106.000000)" fill="#FFFFFF">
                        <rect id="Rectangle" x="0" y="0" width="3" height="30" rx="1.5"></rect>
                        <rect id="Rectangle-Copy-7" x="0" y="36" width="3" height="62" rx="1.5"></rect>
                        <rect id="Rectangle-Copy-12" x="6" y="137" width="3" height="62" rx="1.5"></rect>
                        <rect id="Rectangle-Copy" x="6" y="0" width="3" height="62" rx="1.5"></rect>
                        <rect id="Rectangle-Copy-6" x="6" y="67" width="3" height="34" rx="1.5"></rect>
                        <rect id="Rectangle-Copy-9" x="18" y="94" width="3" height="34" rx="1.5"></rect>
                        <rect id="Rectangle-Copy-11" x="0" y="103" width="3" height="34" rx="1.5"></rect>
                        <rect id="Rectangle-Copy-2" x="12" y="0" width="3" height="42" rx="1.5"></rect>
                        <rect id="Rectangle-Copy-16" x="12" y="166" width="3" height="42" rx="1.5"></rect>
                        <rect id="Rectangle-Copy-5" x="12" y="46" width="3" height="25" rx="1.5"></rect>
                        <rect id="Rectangle-Copy-15" x="0" y="143" width="3" height="25" rx="1.5"></rect>
                        <rect id="Rectangle-Copy-13" x="12" y="134" width="3" height="25" rx="1.5"></rect>
                        <rect id="Rectangle-Copy-10" x="6" y="106" width="3" height="25" rx="1.5"></rect>
                        <rect id="Rectangle-Copy-3" x="18" y="0" width="3" height="31" rx="1.5"></rect>
                        <rect id="Rectangle-Copy-4" x="18" y="36" width="3" height="53" rx="1.5"></rect>
                        <rect id="Rectangle-Copy-17" x="0" y="174" width="3" height="53" rx="1.5"></rect>
                        <rect id="Rectangle-Copy-14" x="18" y="134" width="3" height="53" rx="1.5"></rect>
                        <rect id="Rectangle-Copy-8" x="12" y="76" width="3" height="53" rx="1.5"></rect>
                    </g>
                    <path d="M96,56 L96,117.887139 C87.8514512,132.704287 80.3395078,132.704287 73.4641698,117.887139 C66.5888318,103.069991 74.1007752,82.4409449 96,56 Z" id="Rectangle" fill="url(#linearGradient-3)" transform="translate(83.500000, 92.500000) rotate(-180.000000) translate(-83.500000, -92.500000) "></path>
                    <path d="M25,56 L25,117.887139 C16.8514512,132.704287 9.33950784,132.704287 2.46416982,117.887139 C-4.4111682,103.069991 3.10077519,82.4409449 25,56 Z" id="Rectangle" fill="url(#linearGradient-3)" transform="translate(12.500000, 92.500000) scale(-1, 1) rotate(-180.000000) translate(-12.500000, -92.500000) "></path>
                    <path d="M47.5,0 L48.3745652,1.06087629 C71.1005145,28.7505899 81.9537767,51.6429063 80.9343518,69.7378254 L81,69.7378277 L81,95 L14,95 L14,69.7378277 L14.0656551,69.7379481 C13.0331832,51.4124288 24.1779648,28.1664461 47.5,0 Z" id="Combined-Shape" fill="url(#linearGradient-4)"></path>
                    <polygon id="Rectangle" fill="url(#linearGradient-5)" points="30 95 64 95 60.3829787 103 33.6170213 103"></polygon>
                    <circle id="Oval" stroke="url(#linearGradient-7)" stroke-width="4" fill="url(#radialGradient-6)" cx="47" cy="50" r="14"></circle>
                </g>
            </g>
        </g>
    </g>
</svg>