<?xml version="1.0" encoding="UTF-8"?>
<svg width="96px" height="333px" viewBox="0 0 96 333" version="1.1" xmlns="http://www.w3.org/2000/svg" xmlns:xlink="http://www.w3.org/1999/xlink">
    <!-- Generator: Sketch 57.1 (83088) - https://sketch.com -->
    <title>RocketShip</title>
    <desc>Created with Sketch.</desc>
    <defs>
        <linearGradient x1="50%" y1="45.7509957%" x2="50%" y2="100%" id="linearGradient-1">
            <stop stop-color="#6C0CF3" offset="0%"></stop>
            <stop stop-color="#054DE3" offset="100%"></stop>
        </linearGradient>
        <linearGradient x1="50%" y1="2.67475329%" x2="50%" y2="83.8199013%" id="linearGradient-2">
            <stop stop-color="#6789FF" offset="0%"></stop>
            <stop stop-color="#B277EA" offset="100%"></stop>
        </linearGradient>
        <linearGradient x1="50%" y1="-103.808594%" x2="50%" y2="100%" id="linearGradient-3">
            <stop stop-color="#054DE3" offset="0%"></stop>
            <stop stop-color="#6C0CF3" offset="100%"></stop>
        </linearGradient>
        <radialGradient cx="50%" cy="28.6865234%" fx="50%" fy="28.6865234%" r="85.0423177%" id="radialGradient-4">
            <stop stop-color="#0CDDF3" offset="0%"></stop>
            <stop stop-color="#05B8E3" offset="100%"></stop>
        </radialGradient>
        <linearGradient x1="50%" y1="0%" x2="50%" y2="100%" id="linearGradient-5">
            <stop stop-color="#C8C8C8" offset="0%"></stop>
            <stop stop-color="#979797" offset="100%"></stop>
        </linearGradient>
    </defs>
    <g id="Page-1" stroke="none" stroke-width="1" fill="none" fill-rule="evenodd">
        <g id="Landing_Page_Success-Copy-3" transform="translate(-670.000000, -1739.000000)">
            <g id="RocketShip" transform="translate(670.000000, 1739.000000)">
                <g id="Boosters" transform="translate(39.000000, 106.000000)" fill="#FFFFFF">
                    <rect id="Rectangle" x="0" y="0" width="3" height="30" rx="1.5"></rect>
                    <rect id="Rectangle-Copy-7" x="0" y="36" width="3" height="62" rx="1.5"></rect>
                    <rect id="Rectangle-Copy-12" x="6" y="137" width="3" height="62" rx="1.5"></rect>
                    <rect id="Rectangle-Copy" x="6" y="0" width="3" height="62" rx="1.5"></rect>
                    <rect id="Rectangle-Copy-6" x="6" y="67" width="3" height="34" rx="1.5"></rect>
                    <rect id="Rectangle-Copy-9" x="18" y="94" width="3" height="34" rx="1.5"></rect>
                    <rect id="Rectangle-Copy-11" x="0" y="103" width="3" height="34" rx="1.5"></rect>
                    <rect id="Rectangle-Copy-2" x="12" y="0" width="3" height="42" rx="1.5"></rect>
                    <rect id="Rectangle-Copy-16" x="12" y="166" width="3" height="42" rx="1.5"></rect>
                    <rect id="Rectangle-Copy-5" x="12" y="46" width="3" height="25" rx="1.5"></rect>
                    <rect id="Rectangle-Copy-15" x="0" y="143" width="3" height="25" rx="1.5"></rect>
                    <rect id="Rectangle-Copy-13" x="12" y="134" width="3" height="25" rx="1.5"></rect>
                    <rect id="Rectangle-Copy-10" x="6" y="106" width="3" height="25" rx="1.5"></rect>
                    <rect id="Rectangle-Copy-3" x="18" y="0" width="3" height="31" rx="1.5"></rect>
                    <rect id="Rectangle-Copy-4" x="18" y="36" width="3" height="53" rx="1.5"></rect>
                    <rect id="Rectangle-Copy-17" x="0" y="174" width="3" height="53" rx="1.5"></rect>
                    <rect id="Rectangle-Copy-14" x="18" y="134" width="3" height="53" rx="1.5"></rect>
                    <rect id="Rectangle-Copy-8" x="12" y="76" width="3" height="53" rx="1.5"></rect>
                </g>
                <path d="M96,56 L96,117.887139 C87.8514512,132.704287 80.3395078,132.704287 73.4641698,117.887139 C66.5888318,103.069991 74.1007752,82.4409449 96,56 Z" id="Rectangle" fill="url(#linearGradient-1)" transform="translate(83.500000, 92.500000) rotate(-180.000000) translate(-83.500000, -92.500000) "></path>
                <path d="M25,56 L25,117.887139 C16.8514512,132.704287 9.33950784,132.704287 2.46416982,117.887139 C-4.4111682,103.069991 3.10077519,82.4409449 25,56 Z" id="Rectangle" fill="url(#linearGradient-1)" transform="translate(12.500000, 92.500000) scale(-1, 1) rotate(-180.000000) translate(-12.500000, -92.500000) "></path>
                <path d="M47.5,0 L48.3745652,1.06087629 C71.1005145,28.7505899 81.9537767,51.6429063 80.9343518,69.7378254 L81,69.7378277 L81,95 L14,95 L14,69.7378277 L14.0656551,69.7379481 C13.0331832,51.4124288 24.1779648,28.1664461 47.5,0 Z" id="Combined-Shape" fill="url(#linearGradient-2)"></path>
                <polygon id="Rectangle" fill="url(#linearGradient-3)" points="30 95 64 95 60.3829787 103 33.6170213 103"></polygon>
                <circle id="Oval" stroke="url(#linearGradient-5)" stroke-width="4" fill="url(#radialGradient-4)" cx="47" cy="50" r="14"></circle>
            </g>
        </g>
    </g>
</svg>